<?xml version="1.0" encoding="UTF-8" standalone="no"?>
<svg
   xmlns:dc="http://purl.org/dc/elements/1.1/"
   xmlns:cc="http://creativecommons.org/ns#"
   xmlns:rdf="http://www.w3.org/1999/02/22-rdf-syntax-ns#"
   xmlns:svg="http://www.w3.org/2000/svg"
   xmlns="http://www.w3.org/2000/svg"
   xmlns:sodipodi="http://sodipodi.sourceforge.net/DTD/sodipodi-0.dtd"
   xmlns:inkscape="http://www.inkscape.org/namespaces/inkscape"
   width="102.53784mm"
   height="100mm"
   viewBox="0 0 102.53784 100"
   version="1.1"
   id="svg907"
   inkscape:version="1.0.1 (3bc2e813f5, 2020-09-07)"
   sodipodi:docname="github.svg">
  <defs
     id="defs901" />
  <sodipodi:namedview
     id="base"
     pagecolor="#ffffff"
     bordercolor="#666666"
     borderopacity="1.0"
     inkscape:pageopacity="0.0"
     inkscape:pageshadow="2"
     inkscape:zoom="0.98994949"
     inkscape:cx="203.97571"
     inkscape:cy="290.94714"
     inkscape:document-units="mm"
     inkscape:current-layer="layer1"
     inkscape:document-rotation="0"
     showgrid="false"
     fit-margin-top="0"
     fit-margin-left="0"
     fit-margin-right="0"
     fit-margin-bottom="0"
     inkscape:window-width="1920"
     inkscape:window-height="1016"
     inkscape:window-x="0"
     inkscape:window-y="308"
     inkscape:window-maximized="0" />
  <metadata
     id="metadata904">
    <rdf:RDF>
      <cc:Work
         rdf:about="">
        <dc:format>image/svg+xml</dc:format>
        <dc:type
           rdf:resource="http://purl.org/dc/dcmitype/StillImage" />
        <dc:title></dc:title>
      </cc:Work>
    </rdf:RDF>
  </metadata>
  <g
     inkscape:label="Layer 1"
     inkscape:groupmode="layer"
     id="layer1"
     transform="translate(-12.270206,-55.676576)">
    <path
       d="m 63.539685,55.676576 c -28.326382,0 -51.269479,22.955895 -51.269479,51.269474 0,22.65683 14.688713,41.87002 35.055515,48.64195 2.563474,0.48283 3.503409,-1.10289 3.503409,-2.46529 0,-1.21754 -0.04361,-4.44325 -0.06459,-8.7158 -14.26144,3.09328 -17.269255,-6.87868 -17.269255,-6.87868 -2.332753,-5.9173 -5.703718,-7.4981 -5.703718,-7.4981 -4.644157,-3.1787 0.358807,-3.11463 0.358807,-3.11463 5.148311,0.3588 7.852771,5.28075 7.852771,5.28075 4.571526,7.83991 12.001321,5.57549 14.932239,4.26397 0.461506,-3.31547 1.781609,-5.57561 3.24706,-6.85734 -11.386101,-1.28166 -23.353252,-5.69092 -23.353252,-25.33567 0,-5.596908 1.986703,-10.168439 5.276492,-13.757294 -0.576802,-1.294583 -2.307126,-6.506966 0.448587,-13.569329 0,0 4.293816,-1.375801 14.099106,5.255124 4.101559,-1.140681 8.459464,-1.704708 12.817369,-1.730358 4.357899,0.02583 8.715808,0.589564 12.817365,1.730358 9.741197,-6.630854 14.035014,-5.255124 14.035014,-5.255124 2.755721,7.062363 1.025383,12.274767 0.512692,13.569329 3.268426,3.588855 5.255124,8.160386 5.255124,13.757294 0,19.69603 -11.984255,24.03257 -23.391697,25.29294 1.794432,1.53808 3.46068,4.68264 3.46068,9.48485 0,6.86156 -0.06462,12.37298 -0.06462,14.03928 0,1.34512 0.897175,2.94796 3.524787,2.43526 20.512089,-6.72478 35.187959,-25.95084 35.187959,-48.57349 0,-28.313579 -22.955902,-51.269474 -51.269469,-51.269474"
       id="path1472"
       style="stroke-width:4.27246;fill:#ffffff" />
  </g>
</svg>
