<svg xmlns="http://www.w3.org/2000/svg" width="21.983" height="19.924"><path d="M8.607 18.712v-5.977h4.782c.016 2.072-.032 4.148.024 6.217.15.88 1.091 1.023 1.823.956 1.058-.016 2.12.03 3.174-.025.88-.15 1.023-1.092.956-1.824v-7.714c.74-.019 1.487.037 2.223-.03.834-.378.159-1.154-.327-1.487L11.8.304c-.686-.65-1.568-.14-2.087.436L.204 9.305c-.65.754.403 1.196 1.047 1.04h1.38c.004 2.829-.008 5.66.006 8.488.066.911 1.026 1.164 1.782 1.075 1.078-.016 2.158.03 3.234-.025a1.203 1.203 0 00.954-1.172z" stroke="param(outline) #000" stroke-width=".199"/></svg>