<svg xmlns="http://www.w3.org/2000/svg" width="27.583" height="25"><path d="M10.8 23.479v-7.5h6c.02 2.6-.04 5.205.03 7.801.189 1.104 1.369 1.283 2.288 1.199 1.327-.02 2.659.038 3.982-.031 1.104-.189 1.283-1.37 1.199-2.288v-9.68c.929-.023 1.866.047 2.79-.038 1.046-.474.199-1.447-.41-1.865L14.806.381c-.861-.815-1.968-.176-2.619.548L.256 11.675c-.815.946.505 1.501 1.314 1.305h1.731c.005 3.55-.01 7.102.008 10.651.083 1.143 1.287 1.46 2.236 1.348 1.352-.02 2.708.038 4.057-.031a1.51 1.51 0 001.198-1.47z" stroke="param(outline) #000" stroke-width=".25"/></svg>