<?xml version="1.0" encoding="UTF-8" standalone="no"?>
<svg
   xmlns:dc="http://purl.org/dc/elements/1.1/"
   xmlns:cc="http://creativecommons.org/ns#"
   xmlns:rdf="http://www.w3.org/1999/02/22-rdf-syntax-ns#"
   xmlns:svg="http://www.w3.org/2000/svg"
   xmlns="http://www.w3.org/2000/svg"
   xmlns:sodipodi="http://sodipodi.sourceforge.net/DTD/sodipodi-0.dtd"
   xmlns:inkscape="http://www.inkscape.org/namespaces/inkscape"
   width="100mm"
   height="100mm"
   viewBox="0 0 100 100"
   version="1.1"
   id="svg1507"
   inkscape:version="1.0.1 (3bc2e813f5, 2020-09-07)"
   sodipodi:docname="linkedIn.svg">
  <defs
     id="defs1501" />
  <sodipodi:namedview
     id="base"
     pagecolor="#ffffff"
     bordercolor="#666666"
     borderopacity="1.0"
     inkscape:pageopacity="0.0"
     inkscape:pageshadow="2"
     inkscape:zoom="0.35"
     inkscape:cx="3.4285732"
     inkscape:cy="220.57143"
     inkscape:document-units="mm"
     inkscape:current-layer="layer1"
     inkscape:document-rotation="0"
     showgrid="false"
     fit-margin-top="0"
     fit-margin-left="0"
     fit-margin-right="0"
     fit-margin-bottom="0"
     inkscape:window-width="1920"
     inkscape:window-height="1016"
     inkscape:window-x="0"
     inkscape:window-y="308"
     inkscape:window-maximized="0" />
  <metadata
     id="metadata1504">
    <rdf:RDF>
      <cc:Work
         rdf:about="">
        <dc:format>image/svg+xml</dc:format>
        <dc:type
           rdf:resource="http://purl.org/dc/dcmitype/StillImage" />
        <dc:title></dc:title>
      </cc:Work>
    </rdf:RDF>
  </metadata>
  <g
     inkscape:label="Layer 1"
     inkscape:groupmode="layer"
     id="layer1"
     transform="translate(-104.92619,-89.807143)">
    <path
       d="m 190.1221,175.0238 h -14.80835 v -23.20415 c 0,-5.53334 -0.11024,-12.65418 -7.71669,-12.65418 -7.72079,0 -8.9,6.02084 -8.9,12.24583 v 23.6125 h -14.80835 v -47.71666 h 14.22504 v 6.50416 h 0.19213 c 1.9874,-3.75 6.82078,-7.70833 14.04157,-7.70833 15.00425,0 17.77921,9.87501 17.77921,22.72917 v 26.19166 z m -62.95843,-54.24582 c -4.76661,0 -8.59575,-3.85833 -8.59575,-8.60418 0,-4.74166 3.83323,-8.59582 8.59575,-8.59582 4.75008,0 8.6,3.85416 8.6,8.59582 0,4.74585 -3.85417,8.60418 -8.6,8.60418 z m 7.42504,54.24582 h -14.85008 v -47.71666 h 14.85008 z M 197.53044,89.807143 H 112.3054 c -4.07921,0 -7.37921,3.224992 -7.37921,7.204157 v 85.59167 c 0,3.98334 3.3,7.20417 7.37921,7.20417 h 85.21244 c 4.07496,0 7.40835,-3.22083 7.40835,-7.20417 V 97.0113 c 0,-3.979165 -3.33339,-7.204157 -7.40835,-7.204157 z"
       id="path2072"
       style="stroke-width:4.16666;fill:#ffffff" />
  </g>
</svg>
