<?xml version="1.0" encoding="UTF-8" standalone="no"?>
<svg
   xmlns:sketch="http://www.bohemiancoding.com/sketch/ns"
   xmlns:dc="http://purl.org/dc/elements/1.1/"
   xmlns:cc="http://creativecommons.org/ns#"
   xmlns:rdf="http://www.w3.org/1999/02/22-rdf-syntax-ns#"
   xmlns:svg="http://www.w3.org/2000/svg"
   xmlns="http://www.w3.org/2000/svg"
   xmlns:sodipodi="http://sodipodi.sourceforge.net/DTD/sodipodi-0.dtd"
   xmlns:inkscape="http://www.inkscape.org/namespaces/inkscape"
   width="134.42418mm"
   height="100mm"
   viewBox="0 0 134.42418 99.999998"
   version="1.1"
   id="svg8"
   inkscape:version="1.0.1 (3bc2e813f5, 2020-09-07)"
   sodipodi:docname="mail.svg">
  <defs
     id="defs2" />
  <sodipodi:namedview
     id="base"
     pagecolor="#ffffff"
     bordercolor="#666666"
     borderopacity="1.0"
     inkscape:pageopacity="0.0"
     inkscape:pageshadow="2"
     inkscape:zoom="1.3723898"
     inkscape:cx="573.57998"
     inkscape:cy="239.50437"
     inkscape:document-units="mm"
     inkscape:current-layer="layer1"
     inkscape:document-rotation="0"
     showgrid="false"
     fit-margin-top="0"
     fit-margin-left="0"
     fit-margin-right="0"
     fit-margin-bottom="0"
     inkscape:window-width="1920"
     inkscape:window-height="1016"
     inkscape:window-x="0"
     inkscape:window-y="308"
     inkscape:window-maximized="0" />
  <metadata
     id="metadata5">
    <rdf:RDF>
      <cc:Work
         rdf:about="">
        <dc:format>image/svg+xml</dc:format>
        <dc:type
           rdf:resource="http://purl.org/dc/dcmitype/StillImage" />
        <dc:title></dc:title>
      </cc:Work>
    </rdf:RDF>
  </metadata>
  <g
     inkscape:label="Layer 1"
     inkscape:groupmode="layer"
     id="layer1"
     transform="translate(-84.079878,-72.990143)">
    <path
       d="m 201.95941,154.7209 -31.84798,-31.73076 31.84798,-31.730769 v 0 l -4.34291,-5.04808 -46.32461,46.153859 -46.32446,-46.153859 -4.34292,5.04808 v 0 l 31.84802,31.730769 -31.84802,31.73076 v 0 l 4.34292,5.04808 32.20993,-32.09134 14.11453,14.0625 14.11472,-14.0625 32.20989,32.09134 z M 94.853191,72.990143 c -5.949985,0 -10.773313,5.590702 -10.773313,12.462878 v 75.074249 c 0,6.8831 4.784285,12.46287 10.773313,12.46287 H 207.73078 c 5.94978,0 10.77327,-5.59068 10.77327,-12.46287 V 85.453021 c 0,-6.883069 -4.78427,-12.462878 -10.77327,-12.462878 z"
       id="mail-envelope-closed"
       sketch:type="MSShapeGroup"
       style="fill:#ffffff;fill-rule:evenodd;stroke:none;stroke-width:5.79708" />
  </g>
</svg>
