<?xml version="1.0" encoding="UTF-8" standalone="no"?>
<svg
   xmlns:dc="http://purl.org/dc/elements/1.1/"
   xmlns:cc="http://creativecommons.org/ns#"
   xmlns:rdf="http://www.w3.org/1999/02/22-rdf-syntax-ns#"
   xmlns:svg="http://www.w3.org/2000/svg"
   xmlns="http://www.w3.org/2000/svg"
   xmlns:sodipodi="http://sodipodi.sourceforge.net/DTD/sodipodi-0.dtd"
   xmlns:inkscape="http://www.inkscape.org/namespaces/inkscape"
   version="1.1"
   id="Layer_1"
   x="0px"
   y="0px"
   viewBox="0 0 100 100"
   xml:space="preserve"
   sodipodi:docname="www.svg"
   width="100"
   height="100"
   inkscape:version="1.0.1 (c497b03c, 2020-09-10)"><metadata
   id="metadata877"><rdf:RDF><cc:Work
       rdf:about=""><dc:format>image/svg+xml</dc:format><dc:type
         rdf:resource="http://purl.org/dc/dcmitype/StillImage" /><dc:title></dc:title></cc:Work></rdf:RDF></metadata><defs
   id="defs875" /><sodipodi:namedview
   pagecolor="#ffffff"
   bordercolor="#666666"
   borderopacity="1"
   objecttolerance="10"
   gridtolerance="10"
   guidetolerance="10"
   inkscape:pageopacity="0"
   inkscape:pageshadow="2"
   inkscape:window-width="1626"
   inkscape:window-height="1005"
   id="namedview873"
   showgrid="false"
   fit-margin-top="0"
   fit-margin-left="0"
   fit-margin-right="0"
   fit-margin-bottom="0"
   inkscape:zoom="7.2772277"
   inkscape:cx="40.5"
   inkscape:cy="41.5"
   inkscape:window-x="55"
   inkscape:window-y="23"
   inkscape:window-maximized="0"
   inkscape:current-layer="Layer_1" />
<path
   d="M 91.58537,77.682927 C 96.95122,69.756098 100,60.243902 100,50 100,22.439024 77.560976,0 50,0 22.439024,0 0,22.439024 0,50 c 0,27.560976 22.439024,50 50,50 16.829268,0 31.707317,-8.41463 40.85366,-21.219512 0.12195,-0.121951 0.12195,-0.121951 0.2439,-0.243903 0.12195,-0.121951 0.36585,-0.487805 0.48781,-0.853658 z M 96.34146,50 c 0,5.121951 -0.85366,10 -2.31707,14.512195 C 94.14634,59.878049 93.41463,55.243902 91.34146,52.682927 89.146341,50 86.341463,50.121951 84.146341,50.365854 c -3.04878,0.243902 -5.975609,0.487805 -9.390243,-6.707317 -2.682927,-5.731708 -0.121952,-7.92683 4.268292,-10.853659 3.170732,-2.073171 7.317073,-5 4.390244,-10.243902 -2.682927,-4.756098 -6.707317,-4.634147 -10,-4.634147 -2.073171,0 -4.02439,0 -5.731707,-1.097561 C 65,15.121951 62.926829,11.463415 60.853659,8.04878 60.121951,6.829268 59.390244,5.609756 58.780488,4.512195 80.243902,8.780488 96.34146,27.560976 96.34146,50 Z M 37.073171,5.487805 c 0,0 0.121951,0.121951 0.121951,0.121951 C 40,7.926829 46.95122,15.121951 46.219512,21.219512 45.97561,23.292683 41.829268,25 38.292683,26.707317 c -5,2.195122 -10.731707,4.756098 -11.829268,9.756098 -0.731708,3.292683 0.731707,6.951219 4.634146,11.341463 8.780488,10 16.097561,12.195122 21.463415,13.902439 4.02439,1.219512 6.707317,2.073171 8.536585,5.609756 2.317073,4.268293 0.609756,5.97561 -4.02439,10 -4.268293,3.780488 -10.121951,8.902439 -10.853659,19.024387 -3.04878,-0.2439 -5.97561,-0.7317 -8.902439,-1.58536 C 37.804878,80.121951 31.585366,75.365854 26.95122,71.829268 25.487805,70.731707 24.146341,69.634146 23.414634,68.536585 22.804878,67.560976 24.146341,65.243902 25.365854,63.170732 27.195122,60 29.268293,56.341463 27.926829,52.804878 26.95122,50.243902 24.512195,48.414634 20.365854,46.95122 6.463415,42.317073 8.292683,29.878049 8.414634,29.390244 c 0,0 0,0 0,-0.121951 C 14.390244,17.804878 24.634146,9.146341 37.073171,5.487805 Z M 3.658537,50 c 0,-4.634146 0.731707,-9.146341 1.951219,-13.292683 1.341464,4.878049 4.878049,10.731707 13.780488,13.658537 3.04878,0.975609 4.878049,2.195122 5.365854,3.658536 0.731707,1.95122 -0.853659,4.634147 -2.317074,7.317073 -1.829268,3.048781 -3.658536,6.341464 -1.951219,9.146342 0.97561,1.707317 2.682927,2.926829 4.390244,4.268293 4.02439,3.04878 9.02439,6.829268 8.902439,18.780492 C 16.219512,86.829268 3.658537,69.878049 3.658537,50 Z M 50,96.34146 c 0,0 0,0 0,0 0.609756,-8.536582 5.365854,-12.682923 9.512195,-16.463411 4.146342,-3.658537 8.536585,-7.560976 4.756098,-14.512195 C 61.585366,60.487805 57.926829,59.390244 53.536585,58.04878 48.414634,56.463415 41.95122,54.390244 33.780488,45.243902 30.853659,41.95122 29.512195,39.146341 30,37.073171 c 0.731707,-3.170732 5.487805,-5.243903 9.756098,-7.195122 4.878048,-2.195122 9.634146,-4.268293 10.121951,-8.292683 C 50.731707,14.512195 44.512195,7.439024 41.341463,4.390244 44.146341,3.902439 47.073171,3.536585 50,3.536585 c 1.341463,0 2.682927,0.121952 3.902439,0.121952 0.121951,0.121951 0.121951,0.243902 0.243902,0.243902 1.219513,1.341463 2.560976,3.536585 3.902439,5.731707 2.073171,3.658537 4.512196,7.804878 7.92683,10 2.560975,1.707317 5.243902,1.707317 7.682927,1.585366 3.414634,0 5.243902,0.121951 6.707317,2.804878 1.219512,2.073171 0.365853,2.92683 -3.292683,5.487805 C 73.170732,32.073171 67.439024,36.097561 71.463415,45 c 4.390244,9.512195 9.268292,9.146341 12.926829,8.780488 2.073171,-0.121951 3.04878,-0.243903 4.02439,0.97561 C 91.58537,58.902439 90.2439,71.95122 88.658537,75.609756 80.365854,88.04878 66.097561,96.34146 50,96.34146 Z"
   id="path870"
   style="stroke-width:1.21951;fill:#ffffff" />
</svg>
