<?xml version="1.0" encoding="UTF-8" standalone="no"?>
<svg
   xmlns:dc="http://purl.org/dc/elements/1.1/"
   xmlns:cc="http://creativecommons.org/ns#"
   xmlns:rdf="http://www.w3.org/1999/02/22-rdf-syntax-ns#"
   xmlns:svg="http://www.w3.org/2000/svg"
   xmlns="http://www.w3.org/2000/svg"
   xmlns:xlink="http://www.w3.org/1999/xlink"
   xmlns:sodipodi="http://sodipodi.sourceforge.net/DTD/sodipodi-0.dtd"
   xmlns:inkscape="http://www.inkscape.org/namespaces/inkscape"
   width="1920"
   height="1080"
   viewBox="0 0 508 285.75001"
   version="1.1"
   id="svg8"
   inkscape:version="1.0.1 (3bc2e813f5, 2020-09-07)"
   sodipodi:docname="home_bg_rough.svg">
  <defs
     id="defs2">
    <linearGradient
       inkscape:collect="always"
       id="linearGradient1261">
      <stop
         style="stop-color:#030303;stop-opacity:1"
         offset="0"
         id="stop1257" />
      <stop
         style="stop-color:#2c2c2c;stop-opacity:1"
         offset="1"
         id="stop1259" />
    </linearGradient>
    <linearGradient
       inkscape:collect="always"
       id="linearGradient1253">
      <stop
         style="stop-color:#1e1e1e;stop-opacity:1"
         offset="0"
         id="stop1249" />
      <stop
         style="stop-color:#363636;stop-opacity:1"
         offset="1"
         id="stop1251" />
    </linearGradient>
    <linearGradient
       inkscape:collect="always"
       id="linearGradient1247">
      <stop
         style="stop-color:#1a1a1a;stop-opacity:1"
         offset="0"
         id="stop1243" />
      <stop
         style="stop-color:#2a2a2a;stop-opacity:1"
         offset="1"
         id="stop1245" />
    </linearGradient>
    <linearGradient
       inkscape:collect="always"
       id="linearGradient1206">
      <stop
         style="stop-color:#181818;stop-opacity:1;"
         offset="0"
         id="stop1202" />
      <stop
         style="stop-color:#666666;stop-opacity:1"
         offset="1"
         id="stop1204" />
    </linearGradient>
    <clipPath
       clipPathUnits="userSpaceOnUse"
       id="clipPath933">
      <ellipse
         style="fill:#444444;fill-opacity:1;stroke-width:0;stroke-linecap:round;paint-order:markers stroke fill"
         id="ellipse935"
         cx="-1.3199936"
         cy="320.00211"
         rx="302.93787"
         ry="75.799385" />
    </clipPath>
    <clipPath
       clipPathUnits="userSpaceOnUse"
       id="clipPath937">
      <ellipse
         style="fill:#444444;fill-opacity:1;stroke-width:0;stroke-linecap:round;paint-order:markers stroke fill"
         id="ellipse939"
         cx="427.20886"
         cy="319.2612"
         rx="292.51843"
         ry="58.687252" />
    </clipPath>
    <clipPath
       clipPathUnits="userSpaceOnUse"
       id="clipPath933-7">
      <ellipse
         style="fill:#444444;fill-opacity:1;stroke-width:0;stroke-linecap:round;paint-order:markers stroke fill"
         id="ellipse935-0"
         cx="-1.3199936"
         cy="320.00211"
         rx="302.93787"
         ry="75.799385" />
    </clipPath>
    <linearGradient
       inkscape:collect="always"
       xlink:href="#linearGradient1206"
       id="linearGradient1208"
       x1="299.6951"
       y1="2.3124933"
       x2="302.5184"
       y2="1085.2466"
       gradientUnits="userSpaceOnUse" />
    <linearGradient
       inkscape:collect="always"
       xlink:href="#linearGradient1253"
       id="linearGradient1239"
       gradientUnits="userSpaceOnUse"
       x1="264.87189"
       y1="208.75798"
       x2="261.95511"
       y2="273.40851" />
    <linearGradient
       inkscape:collect="always"
       xlink:href="#linearGradient1247"
       id="linearGradient1241"
       x1="384.45065"
       y1="238.73637"
       x2="383.34149"
       y2="290.96857"
       gradientUnits="userSpaceOnUse" />
    <linearGradient
       inkscape:collect="always"
       xlink:href="#linearGradient1261"
       id="linearGradient1255"
       x1="262.84003"
       y1="248.94182"
       x2="263.19653"
       y2="305.76846"
       gradientUnits="userSpaceOnUse" />
  </defs>
  <sodipodi:namedview
     id="base"
     pagecolor="#ffffff"
     bordercolor="#666666"
     borderopacity="1.0"
     inkscape:pageopacity="0.0"
     inkscape:pageshadow="2"
     inkscape:zoom="0.35812065"
     inkscape:cx="604.07574"
     inkscape:cy="514.91978"
     inkscape:document-units="mm"
     inkscape:current-layer="layer2"
     inkscape:document-rotation="0"
     showgrid="false"
     units="px"
     inkscape:window-width="1920"
     inkscape:window-height="1053"
     inkscape:window-x="0"
     inkscape:window-y="328"
     inkscape:window-maximized="0"
     inkscape:lockguides="false" />
  <metadata
     id="metadata5">
    <rdf:RDF>
      <cc:Work
         rdf:about="">
        <dc:format>image/svg+xml</dc:format>
        <dc:type
           rdf:resource="http://purl.org/dc/dcmitype/StillImage" />
        <dc:title></dc:title>
      </cc:Work>
    </rdf:RDF>
  </metadata>
  <g
     inkscape:label="BG"
     inkscape:groupmode="layer"
     id="layer1"
     style="display:none;opacity:1">
    <rect
       style="mix-blend-mode:normal;fill:#181818;fill-opacity:1;stroke-width:0;stroke-linecap:round;paint-order:markers stroke fill"
       id="rect945"
       width="507.97614"
       height="285.77936"
       x="0.0078633158"
       y="0.03808685"
       ry="0" />
  </g>
  <g
     inkscape:groupmode="layer"
     id="layer3"
     inkscape:label="Layer 3"
     style="display:inline">
    <path
       id="path1193"
       style="display:inline;opacity:1;fill:url(#linearGradient1239);fill-opacity:1;stroke:none;stroke-width:0.264472px;stroke-linecap:butt;stroke-linejoin:miter;stroke-opacity:1"
       d="m 139.54194,237.03326 v 0 l 3.24145,0.32085 1.06861,1.17646 1.70977,-0.24955 2.9565,-0.21391 1.17547,1.06951 2.42219,-0.5704 1.60291,-0.17825 0.92613,0.92691 1.88789,0.60605 1.21109,0.0357 1.85225,0.53476 1.033,-0.3565 1.42481,-0.17826 0.89051,-0.46345 1.70977,-0.0357 2.92088,-0.0713 1.63853,-0.14261 h 1.9235 l 1.38919,0.28521 1.10423,-0.49911 1.63854,0.46346 0.78365,0.32085 2.56297,0.46346 1.53167,-0.71301 1.67417,-0.71301 2.88525,0.17825 0.60554,-0.5704 1.60292,-0.53476 2.1016,0.67736 0.96174,-0.78431 3.81241,-2.74507 0.81927,-0.53476 1.56729,-0.7843 0.46307,-1.31906 0.96174,-1.49732 0.99737,-0.53475 0.42745,-1.10516 0.60554,-0.92691 0.96176,-0.39215 h 1.31796 l 2.42218,0.60604 h 0.71241 l 0.85488,0.2852 0.74803,0.0713 2.31363,-0.21391 1.9581,1.31907 2.92087,0.2139 3.74014,0.0713 0.64117,0.4278 2.92087,0.1426 1.06861,0.85561 2.52904,0.60605 3.06336,0.46345 1.38919,-0.74865 3.17021,-0.0356 1.70978,-0.39215 4.62895,-1.74687 1.42481,-0.92691 4.23883,0.5704 1.28233,-1.17645 1.63854,-0.39216 3.13459,-0.32085 4.8325,-0.89126 4.34568,1.06951 1.60292,-1.21211 7.00956,-5.29634 5.20057,-0.2852 4.44491,-2.86913 1.781,-1.14081 2.45782,0.0713 1.74539,-0.74866 1.38919,-0.85561 1.06862,-1.10515 0.85489,-1.24777 0.99736,-1.14081 2.47536,-3.17986 0.85487,-0.9982 3.0362,-1.13572 1.49607,0.0713 2.56468,-1.17646 2.77838,0.57041 3.95386,0.46345 4.4038,2.14303 h 1.63854 l 2.89321,1.85382 2.9085,2.07068 3.74014,0.0713 0.78365,1.17646 3.06334,1.21211 2.78266,5.57856 3.91823,0.6417 3.17785,4.69028 2.17287,1.49732 2.99209,0.60606 1.92351,-2.38858 1.35356,-0.6417 1.28234,-0.0356 3.52641,0.24955 1.67417,0.74866 2.88524,-0.57041 2.63592,0.1426 2.03037,1.10517 3.84698,-0.39216 1.24673,0.0357 2.49342,0.2852 4.16757,1.24777 2.49343,-0.74866 5.09371,0.39215 1.95912,0.49911 5.80442,4.91974 4.31009,0.99821 1.31794,-0.28521 4.23882,-0.0356 4.84436,0.67735 3.24146,0.67736 4.23882,3.49373 6.64575,2.03207 2.13722,0.49911 2.38657,-0.17826 2.06598,-2.45987 4.31007,0.32085 5.2718,-2.42422 1.92352,0.0713 1.56729,0.1426 2.45779,-1.71121 4.3457,0.4991 3.31268,-0.2139 2.24408,-2.63812 6.48462,-2.21032 3.13458,-0.96256 4.3457,-0.81996 5.41429,1.14081 4.23882,-0.81996 7.19533,0.92691 3.59763,-0.17825 4.0251,-1.46166 3.34153,0.85561 6.98161,1.88946 2.67153,-1.53296 5.27181,0.2139 4.34566,1.88946 1.81667,0.60606 -0.37238,53.80579 H 0.00785168 l -0.01383875,-35.24268 0.15355296,-0.03 v 0 m 0,-2e-4 3.56203611,-0.60606 1.9234993,-0.89126 2.3509439,-0.89125 2.8496298,-0.1426 2.101603,-1.14082 1.923499,-1.1408 1.959121,-0.0713 2.600284,0.0357 0.498686,0.24956 0.569925,0.3565 0.819272,0.85561 1.531674,0.81996 0.890511,0.1426 1.887943,1.14081 1.246709,-0.1426 1.211093,0.67736 0.748028,0.0713 2.101603,-0.0356 1.139855,0.39215 1.709771,0.46346 0.783651,0.10695 1.424816,-0.42781 1.10423,-0.2852 2.209118,-2.03207 2.171819,-2.13913 1.959426,-1.17646 2.101604,-0.74866 1.816639,0.1426 1.424812,-0.81995 1.994743,-0.0713 1.602913,-1.10516 1.175476,-0.32085 h 1.317953 l 2.386563,0.53476 1.121939,1.72904 1.923499,0.39216 1.015224,1.35471 2.366114,1.81703 1.887877,-0.14261 1.930854,0.33868 1.426401,3.64757 2.101604,-0.96255 0.748024,0.46345 1.887882,0.4991 2.03036,-0.1426 2.194516,0.76819 2.218062,1.32017 1.846782,1.04362 c 0,0 1.278581,-0.20585 1.773904,-0.5827 0.732921,-0.55762 2.039615,-1.61222 2.039615,-1.61222 l 3.724104,-1.68423 1.942683,-1.12498 1.389197,-0.89126 1.791922,-2.47523 2.065975,-1.39036 0.498687,-0.0713 h 0.819267 l 0.809399,-0.86575 1.111014,-0.71301 1.24671,-0.92691 1.10424,-1.28341 1.42481,-0.60605 1.64344,-1.64184 1.46043,-0.92691 2.49343,0.60606 0.85489,-0.60606 0.96175,-0.0357 2.92087,-0.0356 2.2797,0.3565 2.87508,-0.78431 2.20846,0.1426 1.42481,0.5704 2.77839,-0.10695 2.52905,-0.24955 0.81927,-0.99821 4.19302,-0.96256 0.46307,0.28521 2.52904,0.39215 1.35357,-0.1426 2.06599,0.92691"
       sodipodi:nodetypes="ccccccccccccccccccccccccccccccccccccccccccccccccccccccccccccccccccccccccccccccccccccccccccccccccccccccccccccccccccccccccccccccccccccccccccccccccccccccccccccccccccccccccccccccccccccccccccccccccccccccsccccccccccccccccccccccccccccccc" />
  </g>
  <g
     inkscape:groupmode="layer"
     id="layer4"
     inkscape:label="Layer 4">
    <path
       id="path1197"
       style="display:inline;fill:url(#linearGradient1241);fill-opacity:1;stroke:none;stroke-width:0.264583px;stroke-linecap:butt;stroke-linejoin:miter;stroke-opacity:1"
       d="m 249.61358,260.89204 1.41426,-0.73581 0.8823,0.0126 1.85284,-0.35292 0.83188,-0.52938 3.858,-1.18036 3.32752,1.41168 4.73922,-1.96627 2.67211,-1.05876 4.18462,-1.36127 0.90752,-0.45375 0.40334,-0.80668 1.51251,-0.70584 1.66376,-1.46209 1.51251,-1.31085 0.90752,-2.01669 1.71419,-1.15959 1.71418,-0.5546 3.12586,-1.26041 1.96627,-0.40334 3.4788,0.90751 1.31084,-0.60501 h 1.41169 l 1.31084,-0.40333 3.63003,-0.70584 1.71418,-1.41168 1.86544,0.45375 2.36961,-0.0504 1.81502,1.26042 2.52085,1.05876 3.22671,-0.15125 0.70584,1.66377 4.03337,0.90751 6.80633,0.70584 3.16667,1.51251 3.68046,0.70584 2.52085,1.66377 2.52086,-0.0504 2.62169,-1.26043 2.42003,-0.80668 2.92419,-3.63004 1.71418,-0.80668 3.52921,-0.50417 1.26043,-2.01668 2.11753,-1.51252 1.56293,-0.75626 1.15959,-1.21001 1.00835,-0.70583 1.96627,-0.55459 2.26876,-0.20167 2.6217,0.10083 2.11753,1.81502 2.52084,0.90751 5.39465,1.41168 0.10084,2.3696 1.91584,1.36127 3.83171,1.96627 5.94923,2.11752 6.09087,3.27712 0.20167,1.26043 7.41132,1.91585 4.18464,-0.85709 2.42002,-0.65542 4.18462,0.70584 7.41133,-1.46211 4.6984,1.22202 7.31049,2.26878 3.73087,-1.41169 4.03337,0.8571 4.33588,-0.10083 3.63003,0.20167 3.27712,1.41167 2.31919,0.45376 2.47045,-0.65543 3.57962,-2.21836 2.97462,-0.55458 2.6721,-2.52086 2.57127,0.25209 1.96628,-0.70584 3.8317,0.85709 3.78128,0.605 1.05877,0.70584 1.26044,1.10918 2.9746,0.55459 1.81502,0.40334 3.07546,0.75626 3.07543,-0.95793 3.4788,-0.45376 3.47878,-0.40334 3.57962,-1.41167 4.0838,1.56293 5.79412,-4.20935 -0.67585,33.47151 -258.29794,0.0349 -1.38298,-24.92128 1.31049,-0.039 z" />
  </g>
  <g
     inkscape:groupmode="layer"
     id="layer2"
     inkscape:label="Layer 2"
     style="display:inline;opacity:1">
    <g
       id="g999"
       transform="translate(-12.402628,-28.031955)">
      <g
         id="g1088">
        <path
           id="path947"
           style="fill:#4d4d4d;fill-opacity:1;stroke-width:0;stroke-linecap:round;paint-order:markers stroke fill"
           inkscape:transform-center-y="-9.1601271"
           d="m -152.9448,134.84235 -0.54902,3.02256 0.58136,-0.25012 -0.6526,0.64234 -4.18618,23.05182 h 9.61328 l -1.69535,-9.33431 -1.57745,-0.93121 1.44275,0.19017 z"
           inkscape:transform-center-x="1.5620914e-06" />
        <path
           id="rect949"
           style="fill:#4d4d4d;fill-opacity:1;stroke-width:0;stroke-linecap:round;paint-order:markers stroke fill"
           d="m -153.73079,158.67419 h 1.60242 v 6.65246 h -1.60242 z" />
      </g>
    </g>
    <g
       id="g1084"
       transform="translate(53.492624,37.409547)">
      <path
         id="path947-5"
         style="fill:#4d4d4d;fill-opacity:1;stroke-width:0;stroke-linecap:round;paint-order:markers stroke fill"
         inkscape:transform-center-y="-9.1601249"
         d="m -397.43555,532.63281 -14.20117,61.95117 6.88281,-0.71875 -7.52539,3.51954 -8.08789,35.27929 h 45.86133 l -2.1875,-9.54687 -11.41211,-5.79102 10.41016,1.42578 -16.78125,-73.21289 -3.11328,-2.42773 2.77343,0.94531 z"
         transform="scale(0.26458333)" />
      <path
         id="rect949-6"
         style="fill:#4d4d4d;fill-opacity:1;stroke-width:0;stroke-linecap:round;paint-order:markers stroke fill"
         d="m -104.35369,164.61961 h -1.60242 v 6.65246 h 1.60242 z" />
    </g>
    <path
       sodipodi:type="star"
       style="display:inline;fill:#00ff00;fill-opacity:1;stroke-width:0;stroke-linecap:round;paint-order:markers stroke fill"
       id="path955-7-5-2-9"
       sodipodi:sides="3"
       sodipodi:cx="-175.61691"
       sodipodi:cy="128.34627"
       sodipodi:r1="4.564496"
       sodipodi:r2="2.282248"
       sodipodi:arg1="0.02343306"
       sodipodi:arg2="1.0706306"
       inkscape:flatsided="true"
       inkscape:rounded="0"
       inkscape:randomized="0"
       d="m -171.05367,128.45322 -6.93749,3.79146 0.18525,-7.90377 z"
       inkscape:transform-center-x="1.7059018"
       inkscape:transform-center-y="0.63849328"
       transform="matrix(-1.7071212,-0.27862432,0.08115926,-0.49725987,-397.90199,142.79184)" />
    <g
       id="g1080"
       transform="translate(98.212663,125.11041)">
      <path
         id="path947-5-1"
         style="display:inline;fill:#4d4d4d;fill-opacity:1;stroke-width:0;stroke-linecap:round;paint-order:markers stroke fill"
         inkscape:transform-center-y="-9.1601249"
         d="m -129.55992,102.89331 3.7574,16.39125 -1.82108,-0.19017 1.99109,0.93121 2.13992,9.33431 h -12.13414 l 0.57878,-2.52594 3.01945,-1.53221 -2.75435,0.37724 4.44003,-19.37091 0.82373,-0.64234 -0.73381,0.25012 z" />
      <path
         id="rect949-6-2"
         style="display:inline;fill:#4d4d4d;fill-opacity:1;stroke-width:0;stroke-linecap:round;paint-order:markers stroke fill"
         d="m -130.36105,126.58716 h 1.60242 v 6.65246 h -1.60242 z" />
    </g>
    <path
       id="rect12-6-9"
       clip-path="url(#clipPath933-7)"
       style="display:inline;opacity:1;fill:#4d4d4d;fill-opacity:1;stroke-width:0;stroke-linecap:round;paint-order:markers stroke fill"
       transform="translate(-153.9435,156.54049)"
       d="M 0.12689209,0.12808749 H 508.45602 V 286.00651 L 0.12689209,286.0065 Z"
       sodipodi:nodetypes="ccccc" />
    <path
       id="path1168"
       style="fill:none;stroke:none;stroke-width:0.264583px;stroke-linecap:butt;stroke-linejoin:miter;stroke-opacity:1"
       d="m 479.36991,273.21391 1.96077,0.28522 1.56861,0.53475 2.13902,-0.74867 2.13903,-0.32083 2.24597,0.0356 2.28163,0.85561 2.17466,0.53475 2.74508,-0.0713 1.31906,-0.74864 4.0183,-0.713 1.46167,0.35648 1.46166,0.74866 2.31728,-0.0713 0.96255,0.21391 -0.18119,11.71226 H 0.00786332 l -0.00527468,-27.14766 0.58897383,-0.0364 v 0 m 477.92275753,14.72317 0.85559,-0.14261 -5.02669,0.39211 m -46.13153,-2.10336 v 0 l 3.4581,1.92516 0.89125,-0.67736 2.42422,0.85561 1.78252,-0.39216 0.67736,-0.35648 h 1.85381 l 1.24777,0.39214 2.31728,-0.74866 1.03386,-0.67736 1.81816,-0.21389 1.28341,0.3565 1.21211,-1.21211 0.46345,-0.10695 3.13724,-0.0713 h 1.63991 l 2.03206,0.0356 1.56861,0.99822 0.14261,0.14261 1.17647,0.60605 4.59888,1.31906 0.21391,-0.14259 1.85381,-1.39038 2.03208,-0.14261 3.31546,-0.21389 2.03208,0.21389 1.92511,1.60427 m -68.80003,2.21037 3.3817,-0.74866 1.99641,-1.56861 1.28342,-0.24956 1.24774,-0.60605 1.60428,-0.0357 1.71122,-0.17822 1.17644,-0.89128 1.60428,0.2852 h 2.17466 l 1.74686,-0.10695 1.78252,-0.67736 1.53297,0.0713 1.426,0.39216 m -22.6685,4.31373 -3.20854,-0.53478 v 0 m -21.39019,0.32092 1.88947,-0.49914 5.52579,-0.28522 2.17467,0.67736 2.99463,0.0713 1.17647,-0.17825 3.42244,-0.53475 1.28339,0.10694 2.92333,0.32086 m -49.57567,2.82351 4.49194,-0.7843 1.28341,-0.2852 4.63455,-0.28522 2.28161,0.14261 0.92691,0.14261 1.71122,0.0713 2.70941,-1.56861 3.33722,0.13546 0.99821,-0.713 3.03028,0.60605 2.78072,0.0357 m -28.96981,2.57391 0.78433,-0.0713 -5.06235,-0.49908 v 0 m -21.06766,0.71299 4.49193,0.85558 1.92514,-1.0695 1.1408,-0.85561 2.88597,-0.14261 2.28164,-1.28339 2.42424,0.3565 3.20852,0.0713 2.70942,1.35472 m -117.26207,-19.10263 1.92426,-0.0891 1.58644,-0.5704 0.48128,-0.17825 1.90729,0.81996 2.19249,0.0356 0.80214,-0.0713 1.19429,-0.0713 1.33688,-0.16042 0.85561,-0.0356 1.62209,0.40998 0.57041,0.19607 0.89125,0.17825 0.90908,0.10696 1.01604,0.39215 0.51693,0.37433 1.37254,1.05168 1.30124,0.78431 0.26737,0.17825 0.48128,0.2139 1.24691,0.2139 1.22994,0.28521 1.69339,0.0357 1.92512,-0.42781 0.57041,-0.1426 1.74686,0.28521 0.24955,0.48128 0.96256,0.16042 h 0.67736 l 1.51514,-0.24955 6.11113,2.75578 4.63455,1.99641 1.35472,1.28341 3.98944,2.58574 3.92153,0.0713 5.34756,1.56862 6.55965,1.0695 8.84128,-0.4278 h 4.34936 l 6.55964,3.20854 3.92155,0.0713 1.7825,0.57041 5.77536,0.8556 M 208.11881,258.43703 v 0 0 l 2.21032,0.39215 2.24461,0.19116 2.74507,-0.0178 0.30303,-0.35651 1.05169,-0.713 h 0.74865 l 0.42781,0.51693 1.10516,0.0891 0.76648,0.0178 2.49552,-0.46345 0.0713,-0.0178 0.37433,-0.24955 1.12299,-0.32086 0.4991,0.0891 0.53475,0.0713 0.57041,0.0535 0.51693,0.0535 1.15864,0.2139 0.90908,0.0891 1.10516,0.0357 1.12299,0.37433 0.23173,0.0178 m -29.30322,-0.67245 2.10336,0.4278 0.49911,-0.1426 1.71121,-0.4991 1.74688,0.2139 0.92691,0.60605 m -7.59352,-0.60605 h 0.60605 l -3.13723,0.14265 v 0 0 0 m -9.44734,-0.92687 2.88768,0.92682 2.38857,0.64171 0.57041,-0.1426 0.713,-0.46346 2.88768,-0.0356 m -29.68484,-1.74692 v 0 l 6.09621,1.46167 0.2852,0.6417 2.74507,-0.46345 2.13902,0.0357 2.76885,-1.60427 0.78431,-0.46346 2.49552,0.0357 0.17825,0.32085 0.71301,0.17826 2.03206,0.67735 m -35.85234,-0.1427 2.24596,-1.28341 2.74509,0.42782 0.5704,0.10695 h 2.17467 l 0.81996,-0.21391 1.0695,-0.1426 4.49195,0.1426 1.49731,0.2852 m -39.65879,0.1768 3.11721,1.49877 4.42063,0.10695 3.38678,-0.35651 1.03387,1.10516 3.24417,-0.2139 1.53297,-0.0713 2.81638,-0.35651 3.85469,-0.86006 m -96.309229,0.97394 15.931835,-3.12586 4.638373,-1.71419 3.025029,-0.9075 5.545892,1.10918 2.319186,0.20166 1.411682,-0.40334 2.823366,-0.3025 3.251188,-0.0115 2.36961,0.3277 1.462098,0.45376 1.033549,-0.52938 1.714181,-0.3025 0.93272,0.15125 0.45376,0.0756 0.95792,0.17647 0.45376,0.0252 1.96627,-0.15125 0.95793,-0.32771 1.23521,-0.47896 0.2773,-0.15125 3.45358,0.0252 0.52938,0.22687 0.75626,0.55459 0.605,0.83188 3.12586,1.51252 1.96628,0.27729 0.50417,0.0756 1.38647,-0.10083 2.24357,1.08397 0.9075,-0.40333 1.05876,-0.25209 0.75626,-0.0756 2.84858,0.30251 m -82.280129,-0.3918 v 0 l 9.3776,2.21834 m -24.704415,-4.63837 7.159236,2.82337 6.655072,0.80668 1.512507,-1.21002 m -45.77878853,2.6217 4.13420933,1.61333 2.0166854,-0.9075 1.7141838,-1.31086 1.613353,2.21836 0.907504,-0.3025 1.411682,-1.31083 1.411683,-1.91586 0.806673,-2.3192 2.016685,-1.51251 2.319194,0.50416 1.915854,0.90752 -0.100839,0.80667 1.714184,0.10084 5.142553,0.10084 3.428368,-1.71419"
       sodipodi:nodetypes="ccccccccccccccccccccccccccccccccccccccccccccccccccccccccccccccccccccccccccccccccccccccccccccccccccccccccccccccccccccccccccccccccccccccccccccccccccccccccccccccccccccccccccccccccccccccccccccccccccccccccccccccccccccccccccccccccccccccccccccccccccccccccccccccccccccccccccccccccccc" />
    <path
       style="fill:none;stroke:#000000;stroke-width:0.264583px;stroke-linecap:butt;stroke-linejoin:miter;stroke-opacity:1"
       d="m 152.05718,257.25611 0.63725,-0.35205 v 0 0"
       id="path1179" />
    <path
       style="fill:url(#linearGradient1255);fill-opacity:1;stroke:none;stroke-width:0;stroke-linecap:round;stroke-opacity:1;paint-order:markers stroke fill"
       d="m 0.00786332,272.53573 0.00342767,-11.31496 2.15158081,0.86452 c 0,0 2.3941909,0.83058 3.4197813,0.30661 0.6073894,-0.31031 1.3774331,-0.80218 1.7112084,-1.09304 0.5380704,-0.4689 0.6952825,-0.40478 1.3868439,0.56564 0.5604558,0.78644 0.9908927,1.03938 1.5293676,0.89868 1.008261,-0.26346 3.152571,-3.55614 3.889473,-4.62089 0.571797,-0.82619 2.611892,-2.50201 2.611892,-2.50201 l 3.318579,1.56378 c 0,0 0.935289,0.65265 3.838424,0.65265 2.98833,0 3.989122,-0.14659 5.280319,-0.77338 l 1.593152,-0.77338 3.315346,1.34231 c 4.162102,1.68514 9.945242,2.51006 11.332776,1.61651 0.776331,-0.49995 1.237089,1.3235 5.434475,0.53605 l 8.41984,-1.57962 6.646606,-0.9219 c 4.463343,-0.61908 6.730664,-4.42544 8.897138,-5.18726 l 3.824263,-1.34476 3.48539,0.65592 c 0,0 4.120805,3.01849 7.355566,2.60659 2.875348,-0.36613 4.243309,-0.37137 6.395381,-0.0245 1.867248,0.30097 3.044196,0.32482 3.701804,0.075 0.530273,-0.20145 2.128163,-0.26877 3.550873,-0.14959 1.93881,0.16241 2.96598,0.0651 4.10088,-0.38867 2.17931,-0.87127 4.53939,-0.79599 5.41623,0.17277 1.56397,1.72792 6.7556,3.38202 10.5015,3.34587 0.71169,-0.007 2.1634,-0.0287 3.22604,-0.0486 1.29068,-0.0241 2.43643,0.22103 3.45139,0.73841 1.25,0.63719 2.21831,0.7785 5.46207,0.79713 2.1685,0.0125 4.27043,0.19346 4.67096,0.40223 1.78799,0.93195 10.66459,-0.24214 13.43294,-1.77675 1.37249,-0.76083 1.82717,-0.838 3.30834,-0.56152 0.94443,0.1763 3.57675,0.22903 5.8496,0.11719 3.50815,-0.17264 4.65595,-0.076 7.59799,0.63962 1.90604,0.46363 3.66243,0.99718 3.90304,1.18565 0.7852,0.61503 6.27855,-1.64651 7.96257,-2.60905 2.0382,-1.165 2.28799,-0.5153 7.06917,1.02909 3.87789,1.25262 4.76893,1.63722 6.83906,1.90971 3.66381,0.48226 11.19924,-0.42661 11.80514,0.0594 0.25859,0.20742 2.04205,0.45929 3.96323,0.5597 2.82202,0.14748 3.66905,0.0673 4.40916,-0.4172 0.64625,-0.4231 0.99149,-0.47785 1.17208,-0.18588 0.29822,0.48214 4.55487,0.18912 5.63379,-0.38782 0.4626,-0.24738 1.90851,-0.17964 4.53094,0.21228 3.11442,0.46545 4.18248,0.49171 5.58089,0.13724 1.34345,-0.34055 1.91578,-0.33869 2.5647,0.008 0.5681,0.30379 1.83188,0.37641 3.95054,0.22702 4.23534,-0.29865 7.11318,0.39648 10.06498,2.43117 l 2.27369,1.56727 3.94205,0.0101 c 2.16812,0.006 4.23522,0.14879 4.59355,0.31831 0.35835,0.16952 1.16737,0.23257 1.79783,0.14012 0.84747,-0.12429 2.55692,0.45183 6.55774,2.21014 2.9763,1.30802 5.82737,2.76045 6.33573,3.2276 2.14396,1.97027 4.62892,3.14418 6.65574,3.14418 1.07395,0 3.05197,0.32324 4.39557,0.71834 5.08563,1.49543 8.52369,1.84947 15.6749,1.61409 l 6.73216,-0.22156 3.41242,1.71511 c 2.53471,1.27397 3.83618,1.71508 5.06014,1.71508 0.90625,0 4.50317,0.49027 7.99314,1.08948 l 6.34539,1.08944 1.42263,-0.89733 c 0.78246,-0.49353 2.13831,-1.0069 3.01303,-1.14083 0.87468,-0.13393 2.019,-0.45908 2.54294,-0.7226 1.27058,-0.63903 6.37172,-0.2716 8.10519,0.5838 2.05656,1.01483 5.98185,1.22486 9.61238,0.51435 1.97579,-0.38669 4.90634,-0.60947 7.89349,-0.60008 4.04661,0.0127 4.93032,-0.0908 5.96028,-0.69797 1.03647,-0.61103 2.20633,-0.74364 8.18869,-0.92813 9.07536,-0.2799 10.61682,-0.27358 13.19225,0.0541 1.25326,0.15944 3.25271,0.0982 4.80617,-0.14713 2.12717,-0.33594 3.36385,-0.31271 6.17235,0.11596 3.9226,0.59876 5.98348,0.32711 7.94641,-1.04735 1.52698,-1.06923 3.4214,-1.68637 5.19667,-1.69299 0.82349,-0.003 1.67549,-0.18362 1.89334,-0.40127 0.21777,-0.21762 1.87314,-0.44854 3.67856,-0.51313 1.8054,-0.0646 3.90861,-0.23744 4.6738,-0.38409 1.12873,-0.21633 1.79144,-0.0684 3.51219,0.78382 1.82014,0.90149 3.14936,1.18068 6.00287,1.26093 2.46489,0.0693 6.82808,-0.44733 7.99836,-0.94708 0.78603,-0.33567 2.12114,-0.60166 2.96691,-0.59108 0.91848,0.0114 1.71833,-0.19822 1.98623,-0.52072 0.33553,-0.40397 1.32839,-0.53996 3.94201,-0.53996 2.9914,0 3.71555,0.12557 5.03817,0.87368 0.8496,0.48051 2.58094,1.15305 3.84742,1.49452 2.26641,0.61103 2.31988,0.6082 3.38592,-0.17931 0.85869,-0.63434 1.77551,-0.8396 4.42386,-0.99049 3.17114,-0.18066 3.39714,-0.1429 4.45153,0.74356 1.04548,0.879 1.29296,0.92252 4.21235,0.74054 1.83833,-0.11462 3.61536,-0.0254 4.3629,0.21929 0.98937,0.32366 1.65259,0.29427 3.07614,-0.13637 2.3954,-0.72459 4.0384,-0.67665 6.50353,0.18981 2.43337,0.85529 5.07712,0.93787 6.49493,0.20288 1.72324,-0.89331 4.69105,-1.1027 6.00516,-0.4237 0.62829,0.32464 1.81604,0.59023 2.63948,0.59023 h 1.49722 v 5.54109 5.54107 H 253.99593 0.00786332 Z"
       id="path1188"
       sodipodi:nodetypes="cccsssssccsscssscssccsssscsccsssssssssssssssssscssccssscssscssscsssssssssssssssssssssssssssscssssscccccc" />
  </g>
</svg>
